<?xml version="1.0" standalone="no"?>
<!DOCTYPE svg PUBLIC "-//W3C//DTD SVG 20010904//EN"
 "http://www.w3.org/TR/2001/REC-SVG-20010904/DTD/svg10.dtd">
<svg version="1.0" xmlns="http://www.w3.org/2000/svg"
 width="640.000000pt" height="278.000000pt" viewBox="0 0 640.000000 278.000000"
 preserveAspectRatio="xMidYMid meet">
<metadata>
Created by potrace 1.13, written by Peter Selinger 2001-2015
</metadata>
<g transform="translate(0.000000,278.000000) scale(0.100000,-0.100000)"
fill="#000000" stroke="none">
<path d="M0 1390 l0 -1390 3200 0 3200 0 0 1390 0 1390 -3200 0 -3200 0 0
-1390z m1314 1246 c40 -23 87 -79 119 -141 45 -89 61 -332 31 -468 -34 -152
-138 -329 -282 -479 l-65 -68 18 -47 c26 -70 123 -257 175 -336 36 -55 46 -64
48 -47 2 12 -8 38 -22 59 -28 39 -34 88 -15 123 10 19 17 20 84 14 151 -14
212 -48 302 -170 33 -45 43 -67 43 -97 0 -28 5 -42 17 -46 19 -7 53 29 53 58
0 27 19 23 30 -7 20 -50 12 -97 -25 -152 -20 -28 -46 -59 -60 -68 -23 -15 -61
-93 -54 -112 2 -5 61 -59 132 -121 70 -62 127 -116 127 -122 0 -31 -107 18
-194 89 -39 31 -78 63 -88 70 -16 12 -22 3 -67 -87 -44 -87 -109 -171 -131
-171 -5 0 -11 7 -14 16 -5 13 -18 4 -61 -43 -61 -68 -139 -109 -245 -129 -68
-13 -81 -11 -62 8 20 20 14 25 -39 32 -29 4 -69 13 -90 20 -37 13 -39 12 -39
-6 0 -24 -15 -20 -125 33 -113 55 -236 162 -275 239 -46 92 -66 228 -52 355
34 298 126 466 359 659 l120 98 -24 72 c-45 137 -57 227 -55 431 1 169 4 201
26 289 50 193 137 274 295 276 50 0 73 -5 105 -24z m870 -172 l129 -133 -40
-48 c-48 -59 -326 -422 -338 -442 -9 -16 0 -11 201 115 72 45 141 87 153 93
l21 12 0 -291 0 -291 -262 -128 c-145 -70 -282 -138 -305 -150 l-43 -21 1 557
0 558 171 153 c94 83 174 151 177 151 3 -1 64 -62 135 -135z m2053 4 l132
-131 -27 -36 c-15 -20 -59 -76 -97 -126 -110 -139 -265 -345 -261 -345 5 0
195 116 298 181 42 27 79 49 83 49 3 0 4 -131 3 -291 l-3 -290 -302 -149 -303
-149 0 558 0 557 28 24 c57 50 219 196 262 237 25 24 47 43 50 43 3 0 64 -59
137 -132z m1162 -566 l56 -154 3 156 3 156 44 0 45 0 0 -290 0 -290 -39 0 -39
0 -62 158 c-35 86 -66 161 -70 165 -5 5 -7 -65 -7 -155 l2 -163 -42 -3 -42 -3
0 208 c0 114 -1 213 -1 219 0 6 -22 42 -50 80 -27 38 -50 71 -50 74 0 3 44 3
97 0 l97 -5 55 -153z m-2865 83 l56 -74 0 -162 0 -161 -47 -42 c-82 -73 -73
-72 -142 -10 l-61 56 0 159 0 158 66 76 c36 41 67 75 68 75 2 0 29 -34 60 -75z
m611 -19 l40 -35 -25 -28 c-14 -15 -40 -44 -58 -65 l-34 -36 57 -102 c31 -56
54 -104 51 -107 -15 -16 -242 -110 -246 -103 -3 5 -4 101 -3 214 l2 205 51 76
51 76 37 -31 c20 -16 55 -45 77 -64z m57 82 c8 -7 33 -30 55 -52 l41 -38 67
51 c63 48 69 51 127 51 l61 0 -102 -77 -101 -78 0 -212 0 -213 -50 0 -50 0 0
214 0 213 -77 64 c-42 35 -84 69 -92 76 -13 10 -5 12 46 13 36 0 67 -5 75 -12z
m1300 -220 l3 -233 33 -3 32 -3 0 235 0 236 45 0 45 0 0 -290 0 -290 -125 0
-125 0 0 290 0 290 45 0 45 0 2 -232z m377 153 l71 -79 -55 -48 c-64 -54 -65
-48 6 -171 27 -47 48 -87 46 -89 -4 -5 -249 -114 -254 -114 -2 0 -3 95 -3 210
l0 210 53 80 c28 44 55 80 58 80 3 0 38 -36 78 -79z m286 0 l55 -75 0 -155 c0
-86 -4 -161 -8 -166 -4 -6 -32 -32 -63 -58 l-57 -47 -61 52 -61 53 0 163 0
164 63 73 c34 40 65 73 69 72 4 -1 32 -35 63 -76z m514 -211 l-2 -290 -51 0
-51 0 0 290 0 290 53 0 52 0 -1 -290z m255 162 c36 -66 66 -122 66 -126 0 -3
-20 -6 -44 -6 -48 0 -42 -7 -82 103 -9 26 -19 47 -21 47 -2 0 -17 -10 -33 -22
l-30 -22 0 -157 0 -157 31 -11 c18 -6 33 -11 34 -11 2 0 15 29 30 65 l28 65
44 0 c52 0 54 6 -39 -131 l-59 -90 -52 37 c-29 21 -64 46 -79 58 l-28 20 0
155 0 156 77 77 c42 42 80 75 84 73 3 -3 36 -58 73 -123z m-3114 61 c38 -32
69 -63 69 -69 1 -5 -21 -35 -49 -66 -27 -31 -50 -61 -50 -67 0 -6 25 -55 54
-108 30 -54 54 -98 53 -99 -1 -1 -59 -27 -129 -57 l-128 -56 0 212 0 211 51
78 c28 43 54 78 56 78 3 0 36 -26 73 -57z m125 -1028 l0 -80 50 0 50 0 3 83
c3 80 3 82 27 82 l25 0 0 -201 0 -200 -27 3 -27 3 1 83 2 83 -52 -3 -52 -3 -3
-82 c-3 -81 -3 -83 -27 -83 l-25 0 0 170 0 170 -45 0 -45 0 0 -170 0 -170 -25
0 -25 0 0 170 0 170 -64 0 c-68 0 -81 7 -71 40 6 20 14 20 168 18 l161 -3 1
-80z m385 60 c0 -14 -6 -26 -12 -26 -7 -1 -17 -2 -23 -4 -5 -1 -34 -3 -62 -3
l-53 -2 0 -55 0 -55 48 0 c48 0 49 0 44 -30 -4 -28 -7 -30 -48 -30 l-44 0 0
-50 0 -50 75 0 75 0 0 -35 0 -35 -105 0 -105 0 0 200 0 200 105 0 105 0 0 -25z
m450 -60 l0 -85 -64 0 c-76 0 -76 1 -76 -137 l0 -93 -40 0 -40 0 0 200 0 200
110 0 110 0 0 -85z m82 -77 l3 -163 35 -3 35 -3 55 166 54 165 73 0 73 0 -2
-197 -3 -198 -27 -3 -28 -3 0 85 0 86 -49 0 -48 0 -25 -82 -24 -83 -95 0 -94
0 -3 198 -2 197 35 0 35 0 2 -162z m548 92 l0 -70 -30 0 c-27 0 -30 3 -30 30
0 28 -2 30 -40 30 l-40 0 0 -103 c0 -93 2 -103 21 -115 18 -11 24 -11 40 4 25
22 24 44 -1 44 -16 0 -20 7 -20 30 0 29 1 30 50 30 l50 0 0 -60 c0 -57 -2 -61
-42 -99 -24 -22 -48 -41 -53 -41 -6 0 -34 16 -63 35 l-52 36 0 159 0 160 105
0 105 0 0 -70z m90 -90 l0 -160 25 0 25 0 0 160 0 160 30 0 29 0 3 -162 c2
-90 2 -180 0 -200 l-3 -38 -90 0 -89 0 0 200 0 200 35 0 35 0 0 -160z m350
136 c0 -19 -6 -24 -37 -30 -21 -3 -57 -6 -79 -6 l-41 0 1 -52 1 -53 48 -3 c45
-3 47 -5 47 -33 0 -28 -2 -29 -47 -29 l-48 0 0 -50 0 -50 78 0 78 0 -3 -32 -3
-33 -107 -3 -108 -3 0 201 0 200 110 0 c109 0 110 0 110 -24z"/>
<path d="M1122 2549 c-81 -40 -114 -104 -136 -267 -26 -187 -18 -353 25 -534
31 -128 33 -129 103 -73 71 58 171 182 203 252 35 75 53 188 53 327 0 179 -34
269 -113 301 -51 20 -84 19 -135 -6z"/>
<path d="M1409 2293 c-1 -21 -1 -41 0 -46 1 -4 -3 -56 -8 -115 -13 -142 -42
-220 -127 -334 -57 -76 -87 -104 -218 -202 -307 -229 -441 -414 -496 -685 -24
-117 -25 -172 -5 -266 30 -143 102 -237 240 -319 97 -56 115 -59 86 -12 -13
21 -21 49 -20 77 l0 44 24 -49 c28 -56 40 -66 120 -105 40 -19 84 -31 131 -35
l71 -7 28 33 c16 18 38 53 49 78 l21 45 3 -37 c2 -22 -3 -47 -14 -63 -9 -14
-14 -28 -11 -31 13 -14 54 13 114 73 63 64 64 65 84 47 21 -19 21 -18 45 11
27 33 68 114 135 269 35 82 52 108 101 154 74 71 76 91 10 84 l-49 -4 -21 59
c-22 59 -86 156 -119 177 -37 25 -193 60 -193 44 0 -5 9 -27 21 -50 18 -35 20
-52 15 -112 -10 -110 -9 -116 13 -140 27 -29 27 -30 -11 -76 -31 -38 -36 -40
-91 -40 l-57 0 -22 -44 c-18 -39 -26 -44 -62 -50 -23 -3 -58 -9 -79 -12 -47
-8 -67 8 -67 52 0 46 19 83 47 90 32 8 73 60 73 93 0 15 -9 37 -20 49 -24 25
-45 29 -36 7 3 -8 8 -21 11 -28 3 -7 -4 -25 -15 -40 -25 -31 -73 -36 -120 -12
-30 15 -84 77 -116 133 -11 19 -24 30 -32 27 -39 -15 -82 67 -62 120 28 73
181 252 364 427 129 122 195 209 246 321 57 126 70 222 52 376 -8 65 -31 82
-33 24z"/>
<path d="M986 1342 c-75 -95 -156 -221 -156 -243 0 -15 5 -18 24 -13 21 5 29
-2 64 -63 23 -38 55 -84 73 -101 32 -31 79 -49 99 -37 13 8 13 41 0 66 -9 17
-7 19 17 19 96 0 108 -127 18 -189 -23 -15 -35 -32 -35 -47 0 -32 13 -37 60
-24 30 8 47 21 66 50 27 41 65 60 118 60 21 0 36 7 44 21 15 23 16 22 -57 104
-68 77 -147 203 -212 340 -33 69 -62 125 -64 125 -2 0 -29 -31 -59 -68z"/>
<path d="M1907 2302 l-97 -97 0 -138 c0 -86 4 -136 10 -132 10 6 234 293 264
338 l19 29 -49 49 -49 49 -98 -98z"/>
<path d="M1993 1702 l-183 -107 0 -92 c0 -51 3 -93 6 -93 4 0 89 39 190 86
l184 87 0 113 c0 63 -3 114 -7 114 -5 -1 -90 -49 -190 -108z"/>
<path d="M3962 2297 l-93 -94 -2 -141 c-1 -78 0 -142 3 -141 3 0 69 84 148
186 l143 186 -47 49 c-27 26 -51 48 -54 48 -3 0 -47 -42 -98 -93z"/>
<path d="M4053 1702 l-182 -107 -1 -97 0 -96 185 86 184 87 1 118 c0 64 -1
117 -2 116 -2 0 -85 -48 -185 -107z"/>
<path d="M2430 1765 l0 -145 40 0 40 0 0 145 0 145 -40 0 -40 0 0 -145z"/>
<path d="M3017 1961 c-32 -48 -32 -48 -11 -96 l15 -38 45 44 c24 24 44 47 44
51 0 4 -15 24 -33 43 l-34 36 -26 -40z"/>
<path d="M2977 1773 c-10 -9 -9 -173 1 -173 11 0 100 35 108 42 3 4 -7 36 -24
73 -25 53 -35 65 -55 65 -13 0 -27 -3 -30 -7z"/>
<path d="M4775 1949 l-27 -41 17 -45 17 -45 49 48 49 48 -37 38 c-20 21 -38
38 -39 38 -1 0 -14 -19 -29 -41z"/>
<path d="M4747 1763 c-8 -7 -10 -173 -2 -173 5 0 109 41 113 44 1 2 -11 33
-27 70 -25 54 -34 66 -54 66 -13 0 -27 -3 -30 -7z"/>
<path d="M5059 1906 c-2 -2 -4 -67 -3 -143 l0 -138 37 -3 37 -3 0 145 0 146
-33 0 c-19 0 -36 -2 -38 -4z"/>
<path d="M2725 1950 c-28 -44 -28 -68 -2 -104 14 -19 16 -18 61 25 l47 44 -40
39 -39 38 -27 -42z"/>
<path d="M2687 1763 c-4 -3 -7 -44 -7 -91 0 -63 3 -83 13 -80 6 3 36 13 65 22
28 10 52 19 52 22 0 2 -14 33 -32 69 -28 55 -36 65 -58 65 -15 0 -30 -3 -33
-7z"/>
<path d="M3620 965 l0 -35 50 0 50 0 0 35 0 35 -50 0 -50 0 0 -35z"/>
<path d="M4066 949 c-9 -29 -16 -56 -16 -59 0 -4 17 -7 38 -6 l37 1 0 55 c0
49 -2 55 -22 58 -19 3 -24 -5 -37 -49z"/>
</g>
</svg>
